<?xml version="1.0" encoding="UTF-8"?>
<svg width="117px" height="136px" viewBox="0 0 117 136" version="1.1" xmlns="http://www.w3.org/2000/svg" xmlns:xlink="http://www.w3.org/1999/xlink">
    <!-- Generator: Sketch 49 (51002) - http://www.bohemiancoding.com/sketch -->
    <title>favicon</title>
    <desc>Created with Sketch.</desc>
    <defs></defs>
    <g id="Page-1" stroke="none" stroke-width="1" fill="none" fill-rule="evenodd">
        <g id="Desktop-HD" transform="translate(-671.000000, -316.000000)" fill="#03C9BA">
            <g id="Logo" transform="translate(662.000000, 324.000000)">
                <path d="M45.151619,116 C47.6830484,115.186453 50.1223737,114.161709 52.4256697,112.825312 C59.150963,108.923227 63.8516697,103.317875 66.5346724,96.024336 C68.2600564,91.3336827 68.922339,86.4619147 68.9231897,81.4880667 C68.9277524,54.491696 68.9255097,27.4953253 68.9241177,0.498954667 C68.9241177,0.332610667 68.9241177,0.174675642 68.9241177,0 L112.210667,0 C112.318856,0.0337173333 112.425035,0.0863813333 112.535621,0.0984453333 C114.150728,0.274301333 115.437091,1.39486133 115.822056,2.97199733 C115.888176,3.24274133 115.940995,3.51681067 116,3.78933333 L116,112.210667 C115.966283,112.318933 115.913619,112.425112 115.901555,112.535699 C115.725389,114.151269 114.606299,115.436008 113.027925,115.822133 C112.757259,115.888331 112.483189,115.941072 112.210667,116 L45.151619,116 Z M25.078957,17.6197371 C32.1920706,17.6484334 35.9909886,17.6218251 43.1041086,17.6103798 C44.7837886,17.6077505 46.0106819,18.3228518 46.7212206,19.8298465 C46.9439406,20.3022758 47.0691432,20.8679691 47.0695299,21.3911291 C47.0861566,41.4807051 47.1035566,62.2331383 47.0626472,82.3225596 C47.0556872,85.7250716 46.3770099,89.026741 44.6261832,92.019077 C42.6027566,95.4771143 39.5569832,97.5034023 35.6601566,98.2539223 C32.7663432,98.8112636 29.8729939,98.688149 27.0175379,97.963845 C22.8784259,96.9139676 20.3209352,94.2893516 19.4018286,90.1200023 C19.1790312,89.1096423 19.1270632,88.0617756 18.9928126,87.0316183 C18.9682206,86.8430796 18.9256872,86.6569383 18.8914286,86.4697143 C18.8914286,63.5017143 18.8914286,40.5337143 18.8914286,17.5657143 C21.3043192,17.6197371 22.7594978,17.6103798 25.078957,17.6197371 Z" id="Fill-1"></path>
            </g>
        </g>
    </g>
</svg>